TITLE ""
FILE "DISC1Track01.mp3" MP3
  TRACK 01 AUDIO
    TITLE "DISC1Track01_01"
    INDEX 01 00:00:00
  TRACK 02 AUDIO
    TITLE "DISC1Track01_02"
    INDEX 01 00:03:15
  TRACK 03 AUDIO
    TITLE "DISC1Track01_03"
    INDEX 01 00:03:38
  TRACK 04 AUDIO
    TITLE "DISC1Track01_04"
    INDEX 01 00:09:05
  TRACK 05 AUDIO
    TITLE "DISC1Track01_05"
    INDEX 01 00:09:23
  TRACK 06 AUDIO
    TITLE "DISC1Track01_06"
    INDEX 01 00:11:12
  TRACK 07 AUDIO
    TITLE "DISC1Track01_07"
    INDEX 01 00:13:33
  TRACK 08 AUDIO
    TITLE "DISC1Track01_08"
    INDEX 01 00:15:24
  TRACK 09 AUDIO
    TITLE "DISC1Track01_09"
    INDEX 01 00:15:59
  TRACK 10 AUDIO
    TITLE "DISC1Track01_10"
    INDEX 01 00:17:50
  TRACK 11 AUDIO
    TITLE "DISC1Track01_11"
    INDEX 01 00:20:13
  TRACK 12 AUDIO
    TITLE "DISC1Track01_12"
    INDEX 01 00:22:28
  TRACK 13 AUDIO
    TITLE "DISC1Track01_13"
    INDEX 01 00:22:59
  TRACK 14 AUDIO
    TITLE "DISC1Track01_14"
    INDEX 01 00:25:46
  TRACK 15 AUDIO
    TITLE "DISC1Track01_15"
    INDEX 01 00:28:56
  TRACK 16 AUDIO
    TITLE "DISC1Track01_16"
    INDEX 01 00:31:56
  TRACK 17 AUDIO
    TITLE "DISC1Track01_17"
    INDEX 01 00:32:12
  TRACK 18 AUDIO
    TITLE "DISC1Track01_18"
    INDEX 01 00:34:21
  TRACK 19 AUDIO
    TITLE "DISC1Track01_19"
    INDEX 01 00:36:55
  TRACK 20 AUDIO
    TITLE "DISC1Track01_20"
    INDEX 01 00:39:06
  TRACK 21 AUDIO
    TITLE "DISC1Track01_21"
    INDEX 01 00:39:36
  TRACK 22 AUDIO
    TITLE "DISC1Track01_22"
    INDEX 01 00:42:34
  TRACK 23 AUDIO
    TITLE "DISC1Track01_23"
    INDEX 01 00:45:34
  TRACK 24 AUDIO
    TITLE "DISC1Track01_24"
    INDEX 01 00:48:17
  TRACK 25 AUDIO
    TITLE "DISC1Track01_25"
    INDEX 01 00:48:50
  TRACK 26 AUDIO
    TITLE "DISC1Track01_26"
    INDEX 01 00:51:04
  TRACK 27 AUDIO
    TITLE "DISC1Track01_27"
    INDEX 01 00:53:32
  TRACK 28 AUDIO
    TITLE "DISC1Track01_28"
    INDEX 01 00:55:45
  TRACK 29 AUDIO
    TITLE "DISC1Track01_29"
    INDEX 01 00:56:05
  TRACK 30 AUDIO
    TITLE "DISC1Track01_30"
    INDEX 01 00:58:29
  TRACK 31 AUDIO
    TITLE "DISC1Track01_31"
    INDEX 01 01:01:08
  TRACK 32 AUDIO
    TITLE "DISC1Track01_32"
    INDEX 01 01:03:30
  TRACK 33 AUDIO
    TITLE "DISC1Track01_33"
    INDEX 01 01:04:02
  TRACK 34 AUDIO
    TITLE "DISC1Track01_34"
    INDEX 01 01:05:41
  TRACK 35 AUDIO
    TITLE "DISC1Track01_35"
    INDEX 01 01:07:54
  TRACK 36 AUDIO
    TITLE "DISC1Track01_36"
    INDEX 01 01:09:43
  TRACK 37 AUDIO
    TITLE "DISC1Track01_37"
    INDEX 01 01:09:74
  TRACK 38 AUDIO
    TITLE "DISC1Track01_38"
    INDEX 01 01:13:33
  TRACK 39 AUDIO
    TITLE "DISC1Track01_39"
    INDEX 01 01:16:47
  TRACK 40 AUDIO
    TITLE "DISC1Track01_40"
    INDEX 01 01:19:22
  TRACK 41 AUDIO
    TITLE "DISC1Track01_41"
    INDEX 01 01:19:75
  TRACK 42 AUDIO
    TITLE "DISC1Track01_42"
    INDEX 01 01:21:36
  TRACK 43 AUDIO
    TITLE "DISC1Track01_43"
    INDEX 01 01:23:47
  TRACK 44 AUDIO
    TITLE "DISC1Track01_44"
    INDEX 01 01:25:38
  TRACK 45 AUDIO
    TITLE "DISC1Track01_45"
    INDEX 01 01:25:71
  TRACK 46 AUDIO
    TITLE "DISC1Track01_46"
    INDEX 01 01:28:38
  TRACK 47 AUDIO
    TITLE "DISC1Track01_47"
    INDEX 01 01:31:31
  TRACK 48 AUDIO
    TITLE "DISC1Track01_48"
    INDEX 01 01:34:02
  TRACK 49 AUDIO
    TITLE "DISC1Track01_49"
    INDEX 01 01:34:33
  TRACK 50 AUDIO
    TITLE "DISC1Track01_50"
    INDEX 01 01:37:49
  TRACK 51 AUDIO
    TITLE "DISC1Track01_51"
    INDEX 01 01:40:63
  TRACK 52 AUDIO
    TITLE "DISC1Track01_52"
    INDEX 01 01:43:69
  TRACK 53 AUDIO
    TITLE "DISC1Track01_53"
    INDEX 01 01:44:24
  TRACK 54 AUDIO
    TITLE "DISC1Track01_54"
    INDEX 01 01:48:21
  TRACK 55 AUDIO
    TITLE "DISC1Track01_55"
    INDEX 01 01:51:45
  TRACK 56 AUDIO
    TITLE "DISC1Track01_56"
    INDEX 01 01:54:42
  TRACK 57 AUDIO
    TITLE "DISC1Track01_57"
    INDEX 01 01:54:71
  TRACK 58 AUDIO
    TITLE "DISC1Track01_58"
    INDEX 01 01:56:62
  TRACK 59 AUDIO
    TITLE "DISC1Track01_59"
    INDEX 01 01:59:02
  TRACK 60 AUDIO
    TITLE "DISC1Track01_60"
    INDEX 01 02:00:72
